/* XPM */
static char * C:\Users\arnav\Desktop\Coinpics\PlutoCoin16_xpm[] = {
"16 16 49 1",
" 	c None",
".	c #D2D2D2",
"+	c #E1E1E1",
"@	c #E7E7E7",
"#	c #EBEBEB",
"$	c #D0D0D0",
"%	c #ABABAB",
"&	c #E4E4E4",
"*	c #EEEEEE",
"=	c #EDEDED",
"-	c #ECECEC",
";	c #EAEAEA",
">	c #DCDCDC",
",	c #AEAEAE",
"'	c #E5E5E5",
")	c #F8F8F8",
"!	c #F9F9F9",
"~	c #E2E2E2",
"{	c #FEFEFE",
"]	c #D3D3D3",
"^	c #C8C8C8",
"/	c #FFFFFF",
"(	c #E0E0E0",
"_	c #F3F3F3",
":	c #D1D1D1",
"<	c #E6E6E6",
"[	c #F2F2F2",
"}	c #F1F1F1",
"|	c #CACACA",
"1	c #E9E9E9",
"2	c #C9C9C9",
"3	c #F5F5F5",
"4	c #F7F7F7",
"5	c #FAFAFA",
"6	c #FBFBFB",
"7	c #CCCCCC",
"8	c #FCFCFC",
"9	c #FDFDFD",
"0	c #DEDEDE",
"a	c #EFEFEF",
"b	c #E3E3E3",
"c	c #CDCDCD",
"d	c #CECECE",
"e	c #E8E8E8",
"f	c #D5D5D5",
"g	c #F6F6F6",
"h	c #DBDBDB",
"i	c #F4F4F4",
"j	c #C7C7C7",
"     .+@#+$     ",
"   %&*=-##;>,   ",
"  '))))))!'~{]  ",
" ^//////{(_///: ",
" <[}}}};|;;;11( ",
"2}}[_34)))!!56>7",
"+///////////8>9&",
"<//////////!0//@",
"</////////3~///'",
"~////////a^&&bbc",
"$///////*d/////$",
" 3/////1*@////3 ",
" 2////<[/e////: ",
"  f//~g//e///.  ",
"   dh!///@/ij   ",
"      bi[$.     "};
