/* XPM */
static char * C:\Users\arnav\Desktop\Coinpics\PlutoCoin32_xpm[] = {
"32 32 95 2",
"  	c None",
". 	c #8D8D8D",
"+ 	c #B4B4B4",
"@ 	c #C3C3C3",
"# 	c #C9C9C9",
"$ 	c #CFCFCF",
"% 	c #CDCDCD",
"& 	c #B3B3B3",
"* 	c #9B9B9B",
"= 	c #868686",
"- 	c #EFEFEF",
"; 	c #FFFFFF",
"> 	c #C6C6C6",
", 	c #939393",
"' 	c #D4D4D4",
") 	c #FDFDFD",
"! 	c #CECECE",
"~ 	c #6C6C6C",
"{ 	c #D2D2D2",
"] 	c #DDDDDD",
"^ 	c #DCDCDC",
"/ 	c #DBDBDB",
"( 	c #DADADA",
"_ 	c #D9D9D9",
": 	c #D8D8D8",
"< 	c #D7D7D7",
"[ 	c #D6D6D6",
"} 	c #D5D5D5",
"| 	c #D3D3D3",
"1 	c #CCCCCC",
"2 	c #BEBEBE",
"3 	c #AAAAAA",
"4 	c #F1F1F1",
"5 	c #F2F2F2",
"6 	c #F0F0F0",
"7 	c #B5B5B5",
"8 	c #FEFEFE",
"9 	c #BDBDBD",
"0 	c #CBCBCB",
"a 	c #BABABA",
"b 	c #F3F3F3",
"c 	c #BBBBBB",
"d 	c #ABABAB",
"e 	c #A9A9A9",
"f 	c #7F7F7F",
"g 	c #F5F5F5",
"h 	c #FAFAFA",
"i 	c #BFBFBF",
"j 	c #E5E5E5",
"k 	c #E9E9E9",
"l 	c #BCBCBC",
"m 	c #F9F9F9",
"n 	c #E2E2E2",
"o 	c #6B6B6B",
"p 	c #E4E4E4",
"q 	c #E3E3E3",
"r 	c #E1E1E1",
"s 	c #DFDFDF",
"t 	c #C2C2C2",
"u 	c #A0A0A0",
"v 	c #D1D1D1",
"w 	c #D0D0D0",
"x 	c #696969",
"y 	c #E6E6E6",
"z 	c #E7E7E7",
"A 	c #EBEBEB",
"B 	c #EDEDED",
"C 	c #F4F4F4",
"D 	c #F6F6F6",
"E 	c #F7F7F7",
"F 	c #ADADAD",
"G 	c #FBFBFB",
"H 	c #8A8A8A",
"I 	c #F8F8F8",
"J 	c #B9B9B9",
"K 	c #B6B6B6",
"L 	c #C1C1C1",
"M 	c #EEEEEE",
"N 	c #C7C7C7",
"O 	c #C5C5C5",
"P 	c #898989",
"Q 	c #B2B2B2",
"R 	c #A7A7A7",
"S 	c #C4C4C4",
"T 	c #7B7B7B",
"U 	c #B8B8B8",
"V 	c #FCFCFC",
"W 	c #ACACAC",
"X 	c #C0C0C0",
"Y 	c #A6A6A6",
"Z 	c #A5A5A5",
"` 	c #ECECEC",
" .	c #CACACA",
"..	c #8B8B8B",
"+.	c #848484",
"                        . + @ # $ % & *                         ",
"                  = # - ; ; ; ; ; ; ; ; - > ,                   ",
"                ' ) ; ; ; ; ; ; ; ; ; ; ; ; ) ! ,               ",
"            ~ { ] ^ / ( _ : < [ [ } ' ' | | { 1 2 3             ",
"          : 4 4 4 4 4 4 4 4 4 4 4 4 5 5 5 6 7 < 8 8 9           ",
"        0 ; ; ; ; ; ; ; ; ; ; ; ; ; ; ; 4 a b ; ; ; ; c         ",
"      d 8 ; ; ; ; ; ; ; ; ; ; ; ; ; ; : # 8 ; ; ; ; ; 8 e       ",
"    f g ; ; ; ; ; ; ; ; ; ; ; ; ; h i j ; ; ; ; ; ; ; ; g       ",
"    ! ; ; ; ; ; ; ; ; ; ; ; ; ; k l m ; ; ; ; ; ; ; ; ; ; n     ",
"  o p j p q q n n r r r r r s t u : [ } | { { v w w w $ $ 1 x   ",
"  7 r n n q p j y z k A B - 4 4 4 4 4 4 5 5 b C g D E m h 2 F   ",
"  - ; ; ; ; ; ; ; ; ; ; ; ; ; ; ; ; ; ; ; ; ; ; ; ; ; G c 5 -   ",
"H ; ; ; ; ; ; ; ; ; ; ; ; ; ; ; ; ; ; ; ; ; ; ; ; ; I J E ; ;   ",
"+ ; ; ; ; ; ; ; ; ; ; ; ; ; ; ; ; ; ; ; ; ; ; ; ; C J G ; ; ; K ",
"L ; ; ; ; ; ; ; ; ; ; ; ; ; ; ; ; ; ; ; ; ; ; ; M 2 8 ; ; ; ; N ",
"N ; ; ; ; ; ; ; ; ; ; ; ; ; ; ; ; ; ; ; ; ; ; j > ; ; ; ; ; ; O ",
"N ; ; ; ; ; ; ; ; ; ; ; ; ; ; ; ; ; ; ; ; ; ] w ; ; ; ; ; ; ; O ",
"L ; ; ; ; ; ; ; ; ; ; ; ; ; ; ; ; ; ; ; ; ' _ ; ; ; ; ; ; ; ; O ",
"K ; ; ; ; ; ; ; ; ; ; ; ; ; ; ; ; ; ; ; 0 n ; ; ; ; ; ; ; ; ; 7 ",
"P ; ; ; ; ; ; ; ; ; ; ; ; ; ; ; ; ; 8 Q R O O S @ @ t t t t t T ",
"  - ; ; ; ; ; ; ; ; ; ; ; ; ; ; ; ) 9 & ; ; ; ; ; ; ; ; ; ; -   ",
"  > ; ; ; ; ; ; ; ; ; ; ; ; ; ; h U D # ; ; ; ; ; ; ; ; ; ; >   ",
"  P ) ; ; ; ; ; ; ; ; ; ; ; ; g U h ; 0 ; ; ; ; ; ; ; ; ; V     ",
"    ' ; ; ; ; ; ; ; ; ; ; ; M l ) ; ; 1 ; ; ; ; ; ; ; ; ; |     ",
"      g ; ; ; ; ; ; ; ; ; z O ; ; ; ; ! ; ; ; ; ; ; ; ; g       ",
"      3 8 ; ; ; ; ; ; ; s ! ; ; ; ; ; $ ; ; ; ; ; ; ; 8 W       ",
"        l ; ; ; ; ; ; < < ; ; ; ; ; ; $ ; ; ; ; ; ; ; c         ",
"          X 8 ; ; ; ! s ; ; ; ; ; ; ; % ; ; ; ; ; 8 c           ",
"            3 g ; O z ; ; ; ; ; ; ; ; 1 ; ; ; ; g Y             ",
"                Z ` ; ; ; ; ; ; ; ; ;  .; ; ) !                 ",
"                    ' 6 ; ; ; ; ; ; ; # - O ,                   ",
"                        ..J / y q [ U +.                        "};
