/* XPM */
static char * C:\Users\arnav\Desktop\Coinpics\PlutoCoin64_xpm[] = {
"64 64 191 2",
"  	c None",
". 	c #686868",
"+ 	c #232323",
"@ 	c #161616",
"# 	c #2F2F2F",
"$ 	c #383838",
"% 	c #333333",
"& 	c #171717",
"* 	c #020202",
"= 	c #9D9D9D",
"- 	c #767676",
"; 	c #666666",
"> 	c #A5A5A5",
", 	c #C1C1C1",
"' 	c #DDDDDD",
") 	c #ECECEC",
"! 	c #FDFDFD",
"~ 	c #FFFFFF",
"{ 	c #C2C2C2",
"] 	c #A4A4A4",
"^ 	c #4F4F4F",
"/ 	c #2E2E2E",
"( 	c #808080",
"_ 	c #C9C9C9",
": 	c #EEEEEE",
"< 	c #EFEFEF",
"[ 	c #7C7C7C",
"} 	c #9A9A9A",
"| 	c #414141",
"1 	c #AEAEAE",
"2 	c #EDEDED",
"3 	c #484848",
"4 	c #3E3E3E",
"5 	c #B6B6B6",
"6 	c #F5F5F5",
"7 	c #B4B4B4",
"8 	c #9F9F9F",
"9 	c #F0F0F0",
"0 	c #929292",
"a 	c #727272",
"b 	c #535353",
"c 	c #D2D2D2",
"d 	c #FCFCFC",
"e 	c #787878",
"f 	c #606060",
"g 	c #040404",
"h 	c #B7B7B7",
"i 	c #B5B5B5",
"j 	c #B2B2B2",
"k 	c #B0B0B0",
"l 	c #AFAFAF",
"m 	c #ACACAC",
"n 	c #ABABAB",
"o 	c #A9A9A9",
"p 	c #A8A8A8",
"q 	c #A7A7A7",
"r 	c #A3A3A3",
"s 	c #A2A2A2",
"t 	c #A0A0A0",
"u 	c #9E9E9E",
"v 	c #9C9C9C",
"w 	c #9B9B9B",
"x 	c #999999",
"y 	c #989898",
"z 	c #979797",
"A 	c #969696",
"B 	c #959595",
"C 	c #949494",
"D 	c #939393",
"E 	c #6C6C6C",
"F 	c #7E7E7E",
"G 	c #848484",
"H 	c #ADADAD",
"I 	c #E1E1E1",
"J 	c #E2E2E2",
"K 	c #E3E3E3",
"L 	c #E4E4E4",
"M 	c #5B5B5B",
"N 	c #D7D7D7",
"O 	c #FBFBFB",
"P 	c #C5C5C5",
"Q 	c #F9F9F9",
"R 	c #F7F7F7",
"S 	c #5D5D5D",
"T 	c #BCBCBC",
"U 	c #E6E6E6",
"V 	c #6D6D6D",
"W 	c #C8C8C8",
"X 	c #AAAAAA",
"Y 	c #737373",
"Z 	c #C0C0C0",
"` 	c #EBEBEB",
" .	c #F4F4F4",
"..	c #898989",
"+.	c #FAFAFA",
"@.	c #616161",
"#.	c #DADADA",
"$.	c #D8D8D8",
"%.	c #545454",
"&.	c #4B4B4B",
"*.	c #868686",
"=.	c #F2F2F2",
"-.	c #D3D3D3",
";.	c #797979",
">.	c #BDBDBD",
",.	c #CACACA",
"'.	c #6B6B6B",
").	c #878787",
"!.	c #F8F8F8",
"~.	c #C3C3C3",
"{.	c #505050",
"].	c #6A6A6A",
"^.	c #CDCDCD",
"/.	c #7D7D7D",
"(.	c #CBCBCB",
"_.	c #C7C7C7",
":.	c #C6C6C6",
"<.	c #C4C4C4",
"[.	c #BFBFBF",
"}.	c #BEBEBE",
"|.	c #B9B9B9",
"1.	c #151515",
"2.	c #8D8D8D",
"3.	c #A6A6A6",
"4.	c #909090",
"5.	c #8F8F8F",
"6.	c #8E8E8E",
"7.	c #8C8C8C",
"8.	c #8B8B8B",
"9.	c #8A8A8A",
"0.	c #555555",
"a.	c #CCCCCC",
"b.	c #CECECE",
"c.	c #D0D0D0",
"d.	c #D5D5D5",
"e.	c #E0E0E0",
"f.	c #E5E5E5",
"g.	c #E7E7E7",
"h.	c #E8E8E8",
"i.	c #E9E9E9",
"j.	c #EAEAEA",
"k.	c #F6F6F6",
"l.	c #424242",
"m.	c #7B7B7B",
"n.	c #676767",
"o.	c #818181",
"p.	c #515151",
"q.	c #DBDBDB",
"r.	c #D6D6D6",
"s.	c #6E6E6E",
"t.	c #CFCFCF",
"u.	c #3A3A3A",
"v.	c #888888",
"w.	c #0B0B0B",
"x.	c #262626",
"y.	c #212121",
"z.	c #434343",
"A.	c #F3F3F3",
"B.	c #D1D1D1",
"C.	c #525252",
"D.	c #3C3C3C",
"E.	c #D9D9D9",
"F.	c #696969",
"G.	c #474747",
"H.	c #575757",
"I.	c #565656",
"J.	c #272727",
"K.	c #636363",
"L.	c #5F5F5F",
"M.	c #595959",
"N.	c #585858",
"O.	c #4E4E4E",
"P.	c #4D4D4D",
"Q.	c #494949",
"R.	c #707070",
"S.	c #757575",
"T.	c #DCDCDC",
"U.	c #7A7A7A",
"V.	c #B8B8B8",
"W.	c #3F3F3F",
"X.	c #3D3D3D",
"Y.	c #FEFEFE",
"Z.	c #828282",
"`.	c #858585",
" +	c #7F7F7F",
".+	c #717171",
"++	c #D4D4D4",
"@+	c #DFDFDF",
"#+	c #747474",
"$+	c #141414",
"%+	c #0C0C0C",
"                                                      . + @ # $ % & *                                                           ",
"                                            = - ; > , ' ) ! ~ ~ ~ ~ ! ) ' { ] ; ^                                               ",
"                                        / ( _ : ~ ~ ~ ~ ~ ~ ~ ~ ~ ~ ~ ~ ~ ~ ~ ~ < _ [ ; }                                       ",
"                                    | 1 : ~ ~ ~ ~ ~ ~ ~ ~ ~ ~ ~ ~ ~ ~ ~ ~ ~ ~ ~ ~ ~ ~ 2 1 3                                     ",
"                                4 5 6 ~ ~ ~ ~ ~ ~ ~ ~ ~ ~ ~ ~ ~ ~ ~ ~ ~ ~ ~ ~ ~ ~ ~ ~ ~ ~ 6 7 ^ 1                               ",
"                              8 9 ~ ~ ~ ~ ~ ~ ~ ~ ~ ~ ~ ~ ~ ~ ~ ~ ~ ~ ~ ~ ~ ~ ~ ~ ~ ~ ~ ~ ~ ~ 9 0 a                             ",
"                          b c ~ ~ ~ ~ ~ ~ ~ ~ ~ ~ ~ ~ ~ ~ ~ ~ ~ ~ ~ ~ ~ ~ ~ ~ ~ ~ ~ ~ ~ ~ ~ ~ d 7 e f                           ",
"                        g = h i 7 j k l 1 m n o p q > ] r s t 8 u = v w } x x y z A B B C D D E 1 ! : F G                       ",
"                      H I I I I I I I I I I I I I I I I I J J J J J J J K K K K K L L L L n M N d ~ ~ O z                       ",
"                    P ~ ~ ~ ~ ~ ~ ~ ~ ~ ~ ~ ~ ~ ~ ~ ~ ~ ~ ~ ~ ~ ~ ~ ~ ~ ~ ~ ~ ~ ~ ~ ~ Q t A R ~ ~ ~ ~ ~ ~ m S                   ",
"                  T ~ ~ ~ ~ ~ ~ ~ ~ ~ ~ ~ ~ ~ ~ ~ ~ ~ ~ ~ ~ ~ ~ ~ ~ ~ ~ ~ ~ ~ ~ ~ ~ U V W ~ ~ ~ ~ ~ ~ ~ ~ ~ X Y                 ",
"                = ~ ~ ~ ~ ~ ~ ~ ~ ~ ~ ~ ~ ~ ~ ~ ~ ~ ~ ~ ~ ~ ~ ~ ~ ~ ~ ~ ~ ~ ~ ~ ~ Z - ` ~ ~ ~ ~ ~ ~ ~ ~ ~ ~ ~ z (               ",
"              F O ~ ~ ~ ~ ~ ~ ~ ~ ~ ~ ~ ~ ~ ~ ~ ~ ~ ~ ~ ~ ~ ~ ~ ~ ~ ~ ~ ~ ~ ~  ...X +.~ ~ ~ ~ ~ ~ ~ ~ ~ ~ ~ ~ O F               ",
"            @.: ~ ~ ~ ~ ~ ~ ~ ~ ~ ~ ~ ~ ~ ~ ~ ~ ~ ~ ~ ~ ~ ~ ~ ~ ~ ~ ~ ~ ~ ~ #.E $.~ ~ ~ ~ ~ ~ ~ ~ ~ ~ ~ ~ ~ ~ ~ : %.            ",
"          &.c ~ ~ ~ ~ ~ ~ ~ ~ ~ ~ ~ ~ ~ ~ ~ ~ ~ ~ ~ ~ ~ ~ ~ ~ ~ ~ ~ ~ ~ O 1 *.=.~ ~ ~ ~ ~ ~ ~ ~ ~ ~ ~ ~ ~ ~ ~ ~ ~ -.            ",
"          0 ~ ~ ~ ~ ~ ~ ~ ~ ~ ~ ~ ~ ~ ~ ~ ~ ~ ~ ~ ~ ~ ~ ~ ~ ~ ~ ~ ~ ~ ) ;.>.~ ~ ~ ~ ~ ~ ~ ~ ~ ~ ~ ~ ~ ~ ~ ~ ~ ~ ~ ~ >           ",
"        M 9 ~ ~ ~ ~ ~ ~ ~ ~ ~ ~ ~ ~ ~ ~ ~ ~ ~ ~ ~ ~ ~ ~ ~ ~ ~ ~ ~ ~ ,.'.L ~ ~ ~ ~ ~ ~ ~ ~ ~ ~ ~ ~ ~ ~ ~ ~ ~ ~ ~ ~ ~ 9           ",
"      ).7 ~ ~ ~ ~ ~ ~ ~ ~ ~ ~ ~ ~ ~ ~ ~ ~ ~ ~ ~ ~ ~ ~ ~ ~ ~ ~ ~ !.y v Q ~ ~ ~ ~ ~ ~ ~ ~ ~ ~ ~ ~ ~ ~ ~ ~ ~ ~ ~ ~ ~ ~ ~ ~.        ",
"      {.6 ~ ~ ~ ~ ~ ~ ~ ~ ~ ~ ~ ~ ~ ~ ~ ~ ~ ~ ~ ~ ~ ~ ~ ~ ~ ~ J ].^.~ ~ ~ ~ ~ ~ ~ ~ ~ ~ ~ ~ ~ ~ ~ ~ ~ ~ ~ ~ ~ ~ ~ ~ ~  .^       ",
"      /.(._ _.:.P <.~.{ , Z [.[.}.}.>.>.>.T T T T T T T |.5 o 1.2.p 3.r t u v } y A C D 0 4.5.6.2.2.7.8.8.9.9.9.9.......3 *.    ",
"    0.h >.}.}.[.[.Z , { ~.<.P :._._ (.a.b.c.-.d.N #.' e.I I I I I I I I J J J K K L L f.U U g.h.i.j.) 2 < 9 =. .k.!.Q > C l.    ",
"    m.~ ~ ~ ~ ~ ~ ~ ~ ~ ~ ~ ~ ~ ~ ~ ~ ~ ~ ~ ~ ~ ~ ~ ~ ~ ~ ~ ~ ~ ~ ~ ~ ~ ~ ~ ~ ~ ~ ~ ~ ~ ~ ~ ~ ~ ~ ~ ~ ~ ~ ~ ~ ~ ~ +.D k ~ F     ",
"  n._ ~ ~ ~ ~ ~ ~ ~ ~ ~ ~ ~ ~ ~ ~ ~ ~ ~ ~ ~ ~ ~ ~ ~ ~ ~ ~ ~ ~ ~ ~ ~ ~ ~ ~ ~ ~ ~ ~ ~ ~ ~ ~ ~ ~ ~ ~ ~ ~ ~ ~ ~ ~ ~ !.o.P ~ ~ _     ",
"  p.< ~ ~ ~ ~ ~ ~ ~ ~ ~ ~ ~ ~ ~ ~ ~ ~ ~ ~ ~ ~ ~ ~ ~ ~ ~ ~ ~ ~ ~ ~ ~ ~ ~ ~ ~ ~ ~ ~ ~ ~ ~ ~ ~ ~ ~ ~ ~ ~ ~ ~ ~ ~ 9 - -.~ ~ ~ <     ",
"  n.~ ~ ~ ~ ~ ~ ~ ~ ~ ~ ~ ~ ~ ~ ~ ~ ~ ~ ~ ~ ~ ~ ~ ~ ~ ~ ~ ~ ~ ~ ~ ~ ~ ~ ~ ~ ~ ~ ~ ~ ~ ~ ~ ~ ~ ~ ~ ~ ~ ~ ~ ~ ` '.q.~ ~ ~ ~ ~ '.  ",
"  ] ~ ~ ~ ~ ~ ~ ~ ~ ~ ~ ~ ~ ~ ~ ~ ~ ~ ~ ~ ~ ~ ~ ~ ~ ~ ~ ~ ~ ~ ~ ~ ~ ~ ~ ~ ~ ~ ~ ~ ~ ~ ~ ~ ~ ~ ~ ~ ~ ~ ~ ~ K E i.~ ~ ~ ~ ~ ~ ]   ",
"  { ~ ~ ~ ~ ~ ~ ~ ~ ~ ~ ~ ~ ~ ~ ~ ~ ~ ~ ~ ~ ~ ~ ~ ~ ~ ~ ~ ~ ~ ~ ~ ~ ~ ~ ~ ~ ~ ~ ~ ~ ~ ~ ~ ~ ~ ~ ~ ~ ~ ~ r.s.2 ~ ~ ~ ~ ~ ~ ~ ,   ",
"n.' ~ ~ ~ ~ ~ ~ ~ ~ ~ ~ ~ ~ ~ ~ ~ ~ ~ ~ ~ ~ ~ ~ ~ ~ ~ ~ ~ ~ ~ ~ ~ ~ ~ ~ ~ ~ ~ ~ ~ ~ ~ ~ ~ ~ ~ ~ ~ ~ ~ t.F 6 ~ ~ ~ ~ ~ ~ ~ ~ '   ",
"u.) ~ ~ ~ ~ ~ ~ ~ ~ ~ ~ ~ ~ ~ ~ ~ ~ ~ ~ ~ ~ ~ ~ ~ ~ ~ ~ ~ ~ ~ ~ ~ ~ ~ ~ ~ ~ ~ ~ ~ ~ ~ ~ ~ ~ ~ ~ ~ ~ |.v.Q ~ ~ ~ ~ ~ ~ ~ ~ ~ ) w.",
"x.! ~ ~ ~ ~ ~ ~ ~ ~ ~ ~ ~ ~ ~ ~ ~ ~ ~ ~ ~ ~ ~ ~ ~ ~ ~ ~ ~ ~ ~ ~ ~ ~ ~ ~ ~ ~ ~ ~ ~ ~ ~ ~ ~ ~ ~ ~ ~ n t d ~ ~ ~ ~ ~ ~ ~ ~ ~ ~ ! y.",
"/ ~ ~ ~ ~ ~ ~ ~ ~ ~ ~ ~ ~ ~ ~ ~ ~ ~ ~ ~ ~ ~ ~ ~ ~ ~ ~ ~ ~ ~ ~ ~ ~ ~ ~ ~ ~ ~ ~ ~ ~ ~ ~ ~ ~ ~ ~ O } H ~ ~ ~ ~ ~ ~ ~ ~ ~ ~ ~ ~ ~ | ",
"4 ~ ~ ~ ~ ~ ~ ~ ~ ~ ~ ~ ~ ~ ~ ~ ~ ~ ~ ~ ~ ~ ~ ~ ~ ~ ~ ~ ~ ~ ~ ~ ~ ~ ~ ~ ~ ~ ~ ~ ~ ~ ~ ~ ~ ~ Q G }.~ ~ ~ ~ ~ ~ ~ ~ ~ ~ ~ ~ ~ ~ {.",
"z.~ ~ ~ ~ ~ ~ ~ ~ ~ ~ ~ ~ ~ ~ ~ ~ ~ ~ ~ ~ ~ ~ ~ ~ ~ ~ ~ ~ ~ ~ ~ ~ ~ ~ ~ ~ ~ ~ ~ ~ ~ ~ ~ ~ A.[ B.~ ~ ~ ~ ~ ~ ~ ~ ~ ~ ~ ~ ~ ~ ~ C.",
"D.~ ~ ~ ~ ~ ~ ~ ~ ~ ~ ~ ~ ~ ~ ~ ~ ~ ~ ~ ~ ~ ~ ~ ~ ~ ~ ~ ~ ~ ~ ~ ~ ~ ~ ~ ~ ~ ~ ~ ~ ~ ~ ~ ) '.E.~ ~ ~ ~ ~ ~ ~ ~ ~ ~ ~ ~ ~ ~ ~ ~ F.",
"4 ! ~ ~ ~ ~ ~ ~ ~ ~ ~ ~ ~ ~ ~ ~ ~ ~ ~ ~ ~ ~ ~ ~ ~ ~ ~ ~ ~ ~ ~ ~ ~ ~ ~ ~ ~ ~ ~ ~ ~ ~ ~ g.'.g.~ ~ ~ ~ ~ ~ ~ ~ ~ ~ ~ ~ ~ ~ ~ ~ ! ( ",
"G.) ~ ~ ~ ~ ~ ~ ~ ~ ~ ~ ~ ~ ~ ~ ~ ~ ~ ~ ~ ~ ~ ~ ~ ~ ~ ~ ~ ~ ~ ~ ~ ~ ~ ~ ~ ~ ~ ~ ~ ~ E.'.) ~ ~ ~ ~ ~ ~ ~ ~ ~ ~ ~ ~ ~ ~ ~ ~ ~ ) H.",
"F.' ~ ~ ~ ~ ~ ~ ~ ~ ~ ~ ~ ~ ~ ~ ~ ~ ~ ~ ~ ~ ~ ~ ~ ~ ~ ~ ~ ~ ~ ~ ~ ~ ~ ~ ~ ~ ~ ~ ~ c [ =.~ ~ ~ ~ ~ ~ ~ ~ ~ ~ ~ ~ ~ ~ ~ ~ ~ ~ ' I.",
"  , ~ ~ ~ ~ ~ ~ ~ ~ ~ ~ ~ ~ ~ ~ ~ ~ ~ ~ ~ ~ ~ ~ ~ ~ ~ ~ ~ ~ ~ ~ ~ ~ ~ ~ ~ ~ ~ ~ [.G Q ~ ~ ~ ~ ~ ~ ~ ~ ~ ~ ~ ~ ~ ~ ~ ~ ~ ~ ~ ,   ",
"  ] ~ ~ ~ ~ ~ ~ ~ ~ ~ ~ ~ ~ ~ ~ ~ ~ ~ ~ ~ ~ ~ ~ ~ ~ ~ ~ ~ ~ ~ ~ ~ ~ ~ ~ ~ ~ ~ H x O ~ ~ ~ ~ ~ ~ ~ ~ ~ ~ ~ ~ ~ ~ ~ ~ ~ ~ ~ ~ ]   ",
"  n.~ ~ ~ ~ ~ ~ ~ ~ ~ ~ ~ ~ ~ ~ ~ ~ ~ ~ ~ ~ ~ ~ ~ ~ ~ ~ ~ ~ ~ ~ ~ ~ ~ ~ ~ d t J.. ; K.@.L.S M M.N.I.%.b C.p.{.^ O.O.P.P.P.P.+   ",
"  Q.< ~ ~ ~ ~ ~ ~ ~ ~ ~ ~ ~ ~ ~ ~ ~ ~ ~ ~ ~ ~ ~ ~ ~ ~ ~ ~ ~ ~ ~ ~ ~ ~ ~ Q v.|.s.~ ~ ~ ~ ~ ~ ~ ~ ~ ~ ~ ~ ~ ~ ~ ~ ~ ~ ~ ~ ~ < -   ",
"  ]._ ~ ~ ~ ~ ~ ~ ~ ~ ~ ~ ~ ~ ~ ~ ~ ~ ~ ~ ~ ~ ~ ~ ~ ~ ~ ~ ~ ~ ~ ~ ~ ~ 6 F t.~ R.~ ~ ~ ~ ~ ~ ~ ~ ~ ~ ~ ~ ~ ~ ~ ~ ~ ~ ~ ~ ~ _ 8.  ",
"    /.~ ~ ~ ~ ~ ~ ~ ~ ~ ~ ~ ~ ~ ~ ~ ~ ~ ~ ~ ~ ~ ~ ~ ~ ~ ~ ~ ~ ~ ~ ~ 2 s.r.~ ~ Y ~ ~ ~ ~ ~ ~ ~ ~ ~ ~ ~ ~ ~ ~ ~ ~ ~ ~ ~ ~ ~ [     ",
"    P.: ~ ~ ~ ~ ~ ~ ~ ~ ~ ~ ~ ~ ~ ~ ~ ~ ~ ~ ~ ~ ~ ~ ~ ~ ~ ~ ~ ~ ~ i.E K ~ ~ ~ S.~ ~ ~ ~ ~ ~ ~ ~ ~ ~ ~ ~ ~ ~ ~ ~ ~ ~ ~ ~ 2 M.    ",
"      l ~ ~ ~ ~ ~ ~ ~ ~ ~ ~ ~ ~ ~ ~ ~ ~ ~ ~ ~ ~ ~ ~ ~ ~ ~ ~ ~ ~ T.'.` ~ ~ ~ ~ e ~ ~ ~ ~ ~ ~ ~ ~ ~ ~ ~ ~ ~ ~ ~ ~ ~ ~ ~ ~ |.      ",
"      l.6 ~ ~ ~ ~ ~ ~ ~ ~ ~ ~ ~ ~ ~ ~ ~ ~ ~ ~ ~ ~ ~ ~ ~ ~ ~ ~ -.- 9 ~ ~ ~ ~ ~ U.~ ~ ~ ~ ~ ~ ~ ~ ~ ~ ~ ~ ~ ~ ~ ~ ~ ~ ~  .        ",
"        5 ~ ~ ~ ~ ~ ~ ~ ~ ~ ~ ~ ~ ~ ~ ~ ~ ~ ~ ~ ~ ~ ~ ~ ~ ~ P o.!.~ ~ ~ ~ ~ ~ /.~ ~ ~ ~ ~ ~ ~ ~ ~ ~ ~ ~ ~ ~ ~ ~ ~ ~ ~ V.        ",
"        W.9 ~ ~ ~ ~ ~ ~ ~ ~ ~ ~ ~ ~ ~ ~ ~ ~ ~ ~ ~ ~ ~ ~ ~ k 0 +.~ ~ ~ ~ ~ ~ ~ ( ~ ~ ~ ~ ~ ~ ~ ~ ~ ~ ~ ~ ~ ~ ~ ~ ~ ~ 9 X.        ",
"          B ~ ~ ~ ~ ~ ~ ~ ~ ~ ~ ~ ~ ~ ~ ~ ~ ~ ~ ~ ~ ~ ! 3.o Y.~ ~ ~ ~ ~ ~ ~ ~ Z.~ ~ ~ ~ ~ ~ ~ ~ ~ ~ ~ ~ ~ ~ ~ ~ ~ ~ t           ",
"          G.c ~ ~ ~ ~ ~ ~ ~ ~ ~ ~ ~ ~ ~ ~ ~ ~ ~ ~ ~ Q 7.7 ~ ~ ~ ~ ~ ~ ~ ~ ~ ~ `.~ ~ ~ ~ ~ ~ ~ ~ ~ ~ ~ ~ ~ ~ ~ ~ ~ -.            ",
"            @.: ~ ~ ~ ~ ~ ~ ~ ~ ~ ~ ~ ~ ~ ~ ~ ~ ~ R  +,.~ ~ ~ ~ ~ ~ ~ ~ ~ ~ ~ v.~ ~ ~ ~ ~ ~ ~ ~ ~ ~ ~ ~ ~ ~ ~ ~ : H.            ",
"              F O ~ ~ ~ ~ ~ ~ ~ ~ ~ ~ ~ ~ ~ ~ ~ : .+++~ ~ ~ ~ ~ ~ ~ ~ ~ ~ ~ ~ ..~ ~ ~ ~ ~ ~ ~ ~ ~ ~ ~ ~ ~ ~ ~ O  +              ",
"              *.y ~ ~ ~ ~ ~ ~ ~ ~ ~ ~ ~ ~ ~ ~ j.V @+~ ~ ~ ~ ~ ~ ~ ~ ~ ~ ~ ~ ~ ..~ ~ ~ ~ ~ ~ ~ ~ ~ ~ ~ ~ ~ ~ ~ z -               ",
"                '.X ~ ~ ~ ~ ~ ~ ~ ~ ~ ~ ~ ~ @+V j.~ ~ ~ ~ ~ ~ ~ ~ ~ ~ ~ ~ ~ ! ..~ ~ ~ ~ ~ ~ ~ ~ ~ ~ ~ ~ ~ ~ X .                 ",
"                  C.m ~ ~ ~ ~ ~ ~ ~ ~ ~ ~ ++.+: ~ ~ ~ ~ ~ ~ ~ ~ ~ ~ ~ ~ ~ ~ d ..~ ~ ~ ~ ~ ~ ~ ~ ~ ~ ~ ~ ~ X s.                  ",
"                      } O ~ ~ ~ ~ ~ ~ ~ ,. +!.~ ~ ~ ~ ~ ~ ~ ~ ~ ~ ~ ~ ~ ~ ~ O ..~ ~ ~ ~ ~ ~ ~ ~ ~ ~ ~ O y #+                    ",
"                        ( : ~ ~ ~ ~ ~ 7 7.Q ~ ~ ~ ~ ~ ~ ~ ~ ~ ~ ~ ~ ~ ~ ~ ~ +...~ ~ ~ ~ ~ ~ ~ ~ ~ ~ : F `.                      ",
"                          H.c ~ ~ Y.o 3.! ~ ~ ~ ~ ~ ~ ~ ~ ~ ~ ~ ~ ~ ~ ~ ~ ~ Q ..~ ~ ~ ~ ~ ~ ~ ~ ~ c 0.                          ",
"                              w j.0 k ~ ~ ~ ~ ~ ~ ~ ~ ~ ~ ~ ~ ~ ~ ~ ~ ~ ~ ~ !...~ ~ ~ ~ ~ ~ ~ 9 0 3                             ",
"                                  e 6 ~ ~ ~ ~ ~ ~ ~ ~ ~ ~ ~ ~ ~ ~ ~ ~ ~ ~ ~ R 9.~ ~ ~ ~ ~ 6 7 b                                 ",
"                                    z.i : ~ ~ ~ ~ ~ ~ ~ ~ ~ ~ ~ ~ ~ ~ ~ ~ ~ 6 9.~ ~ ~ 2 1 S v.                                  ",
"                                          5.^.: ~ ~ ~ ~ ~ ~ ~ ~ ~ ~ ~ ~ ~ ~ 6 9.< _ /.&.                                        ",
"                                              / n.> , ' ) ! ~ ~ ~ ~ ! ) ' { 8 $+%+                                              ",
"                                                                                                                                "};
